<mxfile host="app.diagrams.net" modified="2023-04-24T05:24:27.504Z" agent="Mozilla/5.0 (Windows NT 10.0; Win64; x64) AppleWebKit/537.36 (KHTML, like Gecko) Chrome/111.0.0.0 Safari/537.36" etag="hIeqS-yX4dTAX-KqQ0mf" version="21.2.1" type="github">
  <diagram name="第 1 页" id="DljNp2zCqHDcVa7LLi0c">
    <mxGraphModel dx="1562" dy="858" grid="1" gridSize="10" guides="1" tooltips="1" connect="1" arrows="1" fold="1" page="1" pageScale="1" pageWidth="827" pageHeight="1169" math="0" shadow="0">
      <root>
        <mxCell id="0" />
        <mxCell id="1" parent="0" />
        <mxCell id="-jL3UcRtCvFgxpzw-Mp1-37" value="" style="rounded=0;whiteSpace=wrap;html=1;" vertex="1" parent="1">
          <mxGeometry x="50" y="260" width="400" height="400" as="geometry" />
        </mxCell>
        <mxCell id="-jL3UcRtCvFgxpzw-Mp1-4" value="" style="rounded=0;whiteSpace=wrap;html=1;" vertex="1" parent="1">
          <mxGeometry x="130" y="270" width="257.5" height="170" as="geometry" />
        </mxCell>
        <mxCell id="-jL3UcRtCvFgxpzw-Mp1-6" style="rounded=0;orthogonalLoop=1;jettySize=auto;html=1;" edge="1" parent="1" source="-jL3UcRtCvFgxpzw-Mp1-7">
          <mxGeometry relative="1" as="geometry">
            <mxPoint x="410" y="310" as="targetPoint" />
          </mxGeometry>
        </mxCell>
        <mxCell id="-jL3UcRtCvFgxpzw-Mp1-5" value="client" style="rounded=0;whiteSpace=wrap;html=1;" vertex="1" parent="1">
          <mxGeometry x="630" y="325" width="120" height="60" as="geometry" />
        </mxCell>
        <mxCell id="-jL3UcRtCvFgxpzw-Mp1-8" value="" style="sketch=0;outlineConnect=0;fontColor=#232F3E;gradientColor=none;fillColor=#2E27AD;strokeColor=none;dashed=0;verticalLabelPosition=bottom;verticalAlign=top;align=center;html=1;fontSize=12;fontStyle=0;aspect=fixed;pointerEvents=1;shape=mxgraph.aws4.rds_mysql_instance;" vertex="1" parent="1">
          <mxGeometry x="260" y="120" width="48" height="48" as="geometry" />
        </mxCell>
        <mxCell id="-jL3UcRtCvFgxpzw-Mp1-11" value="driver" style="rounded=0;whiteSpace=wrap;html=1;" vertex="1" parent="1">
          <mxGeometry x="200" y="200" width="70" height="30" as="geometry" />
        </mxCell>
        <mxCell id="-jL3UcRtCvFgxpzw-Mp1-14" style="rounded=0;orthogonalLoop=1;jettySize=auto;html=1;" edge="1" parent="1" source="-jL3UcRtCvFgxpzw-Mp1-12" target="-jL3UcRtCvFgxpzw-Mp1-8">
          <mxGeometry relative="1" as="geometry" />
        </mxCell>
        <mxCell id="-jL3UcRtCvFgxpzw-Mp1-19" style="edgeStyle=orthogonalEdgeStyle;rounded=0;orthogonalLoop=1;jettySize=auto;html=1;entryX=0.5;entryY=0;entryDx=0;entryDy=0;" edge="1" parent="1" source="-jL3UcRtCvFgxpzw-Mp1-12" target="-jL3UcRtCvFgxpzw-Mp1-17">
          <mxGeometry relative="1" as="geometry" />
        </mxCell>
        <mxCell id="-jL3UcRtCvFgxpzw-Mp1-12" value="parser" style="rounded=0;whiteSpace=wrap;html=1;" vertex="1" parent="1">
          <mxGeometry x="147.5" y="280" width="65" height="30" as="geometry" />
        </mxCell>
        <mxCell id="-jL3UcRtCvFgxpzw-Mp1-16" value="数据过滤、加工、分发" style="text;html=1;strokeColor=none;fillColor=none;align=center;verticalAlign=middle;whiteSpace=wrap;rounded=0;" vertex="1" parent="1">
          <mxGeometry x="162.5" y="320" width="125" height="10" as="geometry" />
        </mxCell>
        <mxCell id="-jL3UcRtCvFgxpzw-Mp1-20" style="edgeStyle=orthogonalEdgeStyle;rounded=0;orthogonalLoop=1;jettySize=auto;html=1;" edge="1" parent="1" source="-jL3UcRtCvFgxpzw-Mp1-17">
          <mxGeometry relative="1" as="geometry">
            <mxPoint x="287.5" y="355" as="targetPoint" />
          </mxGeometry>
        </mxCell>
        <mxCell id="-jL3UcRtCvFgxpzw-Mp1-17" value="sink" style="rounded=0;whiteSpace=wrap;html=1;" vertex="1" parent="1">
          <mxGeometry x="147.5" y="340" width="65" height="30" as="geometry" />
        </mxCell>
        <mxCell id="-jL3UcRtCvFgxpzw-Mp1-21" value="store" style="rounded=0;whiteSpace=wrap;html=1;" vertex="1" parent="1">
          <mxGeometry x="294" y="340" width="65" height="30" as="geometry" />
        </mxCell>
        <mxCell id="-jL3UcRtCvFgxpzw-Mp1-22" value="数据存储" style="text;html=1;strokeColor=none;fillColor=none;align=center;verticalAlign=middle;whiteSpace=wrap;rounded=0;" vertex="1" parent="1">
          <mxGeometry x="227.5" y="330" width="60" height="30" as="geometry" />
        </mxCell>
        <mxCell id="-jL3UcRtCvFgxpzw-Mp1-23" value="meta" style="rounded=0;whiteSpace=wrap;html=1;" vertex="1" parent="1">
          <mxGeometry x="147.5" y="400" width="210" height="20" as="geometry" />
        </mxCell>
        <mxCell id="-jL3UcRtCvFgxpzw-Mp1-24" value="增量订阅&amp;amp;消费信息管理器" style="text;html=1;strokeColor=none;fillColor=none;align=center;verticalAlign=middle;whiteSpace=wrap;rounded=0;" vertex="1" parent="1">
          <mxGeometry x="162.5" y="420" width="175" height="20" as="geometry" />
        </mxCell>
        <mxCell id="-jL3UcRtCvFgxpzw-Mp1-25" value="instance1" style="text;html=1;strokeColor=none;fillColor=none;align=center;verticalAlign=middle;whiteSpace=wrap;rounded=0;" vertex="1" parent="1">
          <mxGeometry x="57.5" y="340" width="60" height="30" as="geometry" />
        </mxCell>
        <mxCell id="-jL3UcRtCvFgxpzw-Mp1-26" value="" style="rounded=0;whiteSpace=wrap;html=1;" vertex="1" parent="1">
          <mxGeometry x="130" y="470" width="257.5" height="170" as="geometry" />
        </mxCell>
        <mxCell id="-jL3UcRtCvFgxpzw-Mp1-27" style="edgeStyle=orthogonalEdgeStyle;rounded=0;orthogonalLoop=1;jettySize=auto;html=1;entryX=0.5;entryY=0;entryDx=0;entryDy=0;" edge="1" parent="1" source="-jL3UcRtCvFgxpzw-Mp1-28" target="-jL3UcRtCvFgxpzw-Mp1-31">
          <mxGeometry relative="1" as="geometry" />
        </mxCell>
        <mxCell id="-jL3UcRtCvFgxpzw-Mp1-28" value="parser" style="rounded=0;whiteSpace=wrap;html=1;" vertex="1" parent="1">
          <mxGeometry x="147.5" y="480" width="65" height="30" as="geometry" />
        </mxCell>
        <mxCell id="-jL3UcRtCvFgxpzw-Mp1-29" value="数据过滤、加工、分发" style="text;html=1;strokeColor=none;fillColor=none;align=center;verticalAlign=middle;whiteSpace=wrap;rounded=0;" vertex="1" parent="1">
          <mxGeometry x="162.5" y="520" width="125" height="10" as="geometry" />
        </mxCell>
        <mxCell id="-jL3UcRtCvFgxpzw-Mp1-30" style="edgeStyle=orthogonalEdgeStyle;rounded=0;orthogonalLoop=1;jettySize=auto;html=1;" edge="1" parent="1" source="-jL3UcRtCvFgxpzw-Mp1-31">
          <mxGeometry relative="1" as="geometry">
            <mxPoint x="287.5" y="555" as="targetPoint" />
          </mxGeometry>
        </mxCell>
        <mxCell id="-jL3UcRtCvFgxpzw-Mp1-31" value="sink" style="rounded=0;whiteSpace=wrap;html=1;" vertex="1" parent="1">
          <mxGeometry x="147.5" y="540" width="65" height="30" as="geometry" />
        </mxCell>
        <mxCell id="-jL3UcRtCvFgxpzw-Mp1-32" value="store" style="rounded=0;whiteSpace=wrap;html=1;" vertex="1" parent="1">
          <mxGeometry x="294" y="540" width="65" height="30" as="geometry" />
        </mxCell>
        <mxCell id="-jL3UcRtCvFgxpzw-Mp1-33" value="数据存储" style="text;html=1;strokeColor=none;fillColor=none;align=center;verticalAlign=middle;whiteSpace=wrap;rounded=0;" vertex="1" parent="1">
          <mxGeometry x="227.5" y="530" width="60" height="30" as="geometry" />
        </mxCell>
        <mxCell id="-jL3UcRtCvFgxpzw-Mp1-34" value="meta" style="rounded=0;whiteSpace=wrap;html=1;" vertex="1" parent="1">
          <mxGeometry x="147.5" y="600" width="210" height="20" as="geometry" />
        </mxCell>
        <mxCell id="-jL3UcRtCvFgxpzw-Mp1-35" value="增量订阅&amp;amp;消费信息管理器" style="text;html=1;strokeColor=none;fillColor=none;align=center;verticalAlign=middle;whiteSpace=wrap;rounded=0;" vertex="1" parent="1">
          <mxGeometry x="162.5" y="620" width="175" height="20" as="geometry" />
        </mxCell>
        <mxCell id="-jL3UcRtCvFgxpzw-Mp1-36" value="instance2" style="text;html=1;strokeColor=none;fillColor=none;align=center;verticalAlign=middle;whiteSpace=wrap;rounded=0;" vertex="1" parent="1">
          <mxGeometry x="57.5" y="540" width="60" height="30" as="geometry" />
        </mxCell>
        <mxCell id="-jL3UcRtCvFgxpzw-Mp1-38" value="" style="rounded=0;orthogonalLoop=1;jettySize=auto;html=1;" edge="1" parent="1" source="-jL3UcRtCvFgxpzw-Mp1-5" target="-jL3UcRtCvFgxpzw-Mp1-7">
          <mxGeometry relative="1" as="geometry">
            <mxPoint x="630" y="345" as="sourcePoint" />
            <mxPoint x="410" y="310" as="targetPoint" />
          </mxGeometry>
        </mxCell>
        <mxCell id="-jL3UcRtCvFgxpzw-Mp1-7" value="protocol" style="rounded=0;whiteSpace=wrap;html=1;" vertex="1" parent="1">
          <mxGeometry x="480" y="305" width="100" height="40" as="geometry" />
        </mxCell>
      </root>
    </mxGraphModel>
  </diagram>
</mxfile>
